<svg xmlns="http://www.w3.org/2000/svg" viewBox="0 0 13650.06 1487.83"><defs><style>.cls-1{fill:#2381c4;}</style></defs><title>Dimensi Cloud Blue</title><g id="Layer_2" data-name="Layer 2"><g id="Layer_1-2" data-name="Layer 1"><path class="cls-1" d="M1500.74,302.51a572.91,572.91,0,0,0-140.26,17.26A471.66,471.66,0,0,0,927.64,36.36c-260.35,0-472.06,211.71-472.06,471.94v2.42C220.81,537,36.38,738.84,36.38,979.52c0,258.43,208.7,468.93,466.4,472h5.55l1021.13-2.42v-.72c303-15,544.74-266.15,544.74-572.73C2074.2,559.6,1817,302.51,1500.74,302.51Zm0,1062.05v.12L508.33,1367h-1c-213.16-.49-386.49-174.18-386.49-387.46,0-209.66,170.31-383.35,379.73-387.21l46-.84-4.71-45.63a366.55,366.55,0,0,1-1.81-37.54c0-213.64,173.81-387.45,387.57-387.45a386.9,386.9,0,0,1,367.3,263.85l13.4,39.83,40-13.27A483.1,483.1,0,0,1,1500.74,387c269.64,0,489,219.19,489,488.6C1989.7,1145.25,1770.38,1364.56,1500.74,1364.56Z"/><path class="cls-1" d="M508.43,1487.83h-5.65C225.37,1484.59,0,1256.55,0,979.53,0,731.14,178.5,521.3,420.17,479.06,436.42,211.18,657.83,0,927.67,0c192.43,0,367.2,108.1,453.26,277.9a614.18,614.18,0,0,1,119.82-11.75c336.25,0,609.81,273.4,609.81,609.45,0,313.83-236.62,573.78-544.71,606.38v2.64l-36.28.79ZM927.67,72.73C687.42,72.73,492,268.13,492,508.29v32.52l-32.33,6C242.72,571.17,72.78,761.22,72.78,979.53c0,237.4,193.1,432.8,430.43,435.57L1527.65,1412c286.07-14.17,510.13-249.77,510.13-536.43,0-296-240.91-536.72-537-536.72A537.49,537.49,0,0,0,1369.35,355l-30,7.55-12.29-28.32C1258.09,175.4,1101.28,72.73,927.67,72.73ZM508.43,1403.35c-234.26-.55-424-190.65-424-423.82,0-229.35,186.4-419.37,415.45-423.6l6.42-.1-.66-6.26a409.61,409.61,0,0,1-2-41.28c0-233.68,190.19-423.82,424-423.82a423.18,423.18,0,0,1,401.72,288.69l1.87,5.43,5.54-1.84a520,520,0,0,1,164-26.12c289.65,0,525.34,235.49,525.34,525,0,289.65-235.64,525.28-525.23,525.34ZM927.67,157.2C734,157.2,576.49,314.7,576.49,508.29A328.3,328.3,0,0,0,578,542.13l8.78,85-85.57,1.54c-189.69,3.51-344,160.91-344,350.87,0,193.16,157.09,350.66,350.25,351.1l993.25-2.42c249.58,0,452.56-203,452.56-452.61,0-249.35-203-452.25-452.56-452.25a447.91,447.91,0,0,0-141.06,22.42l-74.32,24.7-24.92-74.18A350.54,350.54,0,0,0,927.67,157.2Z"/><circle class="cls-1" cx="1901.94" cy="575.17" r="241.99"/><path class="cls-1" d="M1901.94,889.79c-173.5,0-314.63-141.13-314.63-314.62s141.13-314.62,314.63-314.62,314.63,141.14,314.63,314.62S2075.44,889.79,1901.94,889.79Zm0-484c-93.38,0-169.35,76-169.35,169.35s76,169.35,169.35,169.35,169.35-76,169.35-169.35S1995.32,405.82,1901.94,405.82Z"/><rect class="cls-1" x="3942.73" y="507.93" width="154.27" height="781.95"/><path class="cls-1" d="M6731.31,945.15,6117,952.82q14.11,99.84,89.87,159.61t187.18,58.39q135.7-1.69,217.43-94.16l76.82,87.62q-50.68,60.65-126.71,93t-170.33,33.56q-120,1.5-213.47-46.63t-145.29-136.06q-51.82-87.93-53.21-199.37-1.38-110,46.81-199.18t134-139.55q85.8-50.37,194.38-51.72t194.19,46.87q85.59,48.22,134.58,136.19t50.38,202.26Q6733.86,919.42,6731.31,945.15Zm-539.61-249Q6126,757,6115.8,854.25l485.71-6.07q-12.65-95.55-79.81-155.45T6356,634.07Q6257.37,635.3,6191.7,696.13Z"/><path class="cls-1" d="M7410.86,518.36c284.34,0,360.33,221,360.33,328.6V1282.7H7634v-420q0-110-52.86-165.72c-35.25-37.15-104.6-55.72-170.32-55.72-74.29,0-114,21.68-156.85,65s-64.29,92.1-64.29,152.6V1282.7H7052L7047,894.54a568.72,568.72,0,0,1,6.68-95.52C7075.22,661.44,7168.86,518.36,7410.86,518.36Z"/><path class="cls-1" d="M8217.18,1266.27q-85.71-25-134.29-63.57L8140,1094.12q50,35.73,121.44,57.14a499.58,499.58,0,0,0,144.3,21.44q180,0,180-102.87,0-34.29-24.29-54.29t-60.72-29.28q-36.42-9.28-103.58-20.72-91.44-14.26-149.29-32.86a229.84,229.84,0,0,1-99.29-62.86q-41.46-44.27-41.44-124.3,0-102.85,85.72-165t230-62.15a634.4,634.4,0,0,1,151.44,18.58q75.7,18.57,124.29,50l-58.57,108.58q-92.9-60-218.59-60-87.15,0-132.87,28.58t-45.71,75.72q0,37.17,25.71,58.57t63.58,31.44q37.84,10,106.44,22.85,91.41,15.74,147.86,33.58A221.06,221.06,0,0,1,8682.93,947q40,42.87,40,120,0,102.87-87.86,163.59t-239.3,60.72Q8302.88,1291.28,8217.18,1266.27Z"/><rect class="cls-1" x="9034.76" y="507.93" width="154.27" height="781.95"/><path class="cls-1" d="M4740.46,518.36c273.23,0,346.24,221,346.24,328.6V1282.7H4954.91v-420q0-110-50.79-165.72c-33.87-37.15-100.51-55.72-163.66-55.72-71.38,0-109.53,21.68-150.71,65S4528,798.33,4528,858.83V1282.7H4395.66l-4.85-388.16a591.46,591.46,0,0,1,6.42-95.52C4418,661.44,4507.93,518.36,4740.46,518.36Z"/><path class="cls-1" d="M5648,799a591.46,591.46,0,0,1,6.42,95.52l-4.85,388.16H5517.27V858.83c0-60.5-20.59-109.24-61.78-152.6s-79.32-65-150.71-65c-63.15,0-129.79,18.57-163.66,55.72s-50.79,92.39-50.79,165.72v420H4958.54V847c0-107.62,73-328.6,346.24-328.6C5537.31,518.36,5627.29,661.44,5648,799Z"/><path class="cls-1" d="M3562,521.75q-68-113.46-190.81-176.25t-281.47-63H2668.31V1282.54h421.36q158.55,0,281.47-62.8a482.94,482.94,0,0,0,82.43-52.85c43.64-34.43,79.53-75.64,108.38-123.64q68-113.47,67.88-260.63T3562,521.75ZM3430.78,960.57a307.89,307.89,0,0,1-73.94,84.37,323.43,323.43,0,0,1-56.25,36.13c-55.76,28.61-120,42.67-192,42.67H2820.8V441.26h287.78c72,0,136.25,14.31,192,42.92q84,42.9,130.19,120.25c31,51.88,46.55,111,46.55,178.19Q3477.33,883,3430.78,960.57Z"/><path class="cls-1" d="M9770.2,1234q-119.28-64.83-186.87-179.21t-67.66-258q0-143.65,68.33-258t187.6-179.21q119.22-64.83,267.07-64.84,119.94,0,218.93,41.82T10425,457.88l-117.15,110.18q-106-114.36-260.78-114.36-100.41,0-179.91,43.94T9743,619.67q-44.7,78.09-44.64,177.12T9743,973.91q44.61,78.09,124.11,122t179.91,43.92q154.83,0,260.78-115.75L10425,1135.67q-68.32,79.51-168,121.34t-219.64,41.82Q9889.44,1298.83,9770.2,1234Z"/><path class="cls-1" d="M10700.62,423h147.94v878.2h-147.94Z"/><path class="cls-1" d="M11319.11,1258.4q-79.35-42.7-123.89-119t-44.54-172.7q0-96.42,44.54-172.11t123.89-118.41q79.36-42.72,178.24-42.71,100,0,179.41,42.71t123.9,118.41q44.53,75.69,44.53,172.11t-44.53,172.7q-44.61,76.3-123.9,119t-179.41,42.71Q11398.43,1301.11,11319.11,1258.4Zm317.36-144q54.95-56.11,54.93-147.68T11636.47,819q-54.94-56.15-139.12-56.15T11358.77,819q-54.32,56.14-54.29,147.7t54.29,147.68q54.31,56.17,138.58,56.15T11636.47,1114.36Z"/><path class="cls-1" d="M13650.06,417.44V1296H13508v-81.69a228.79,228.79,0,0,1-90.57,67.47q-53.91,22.5-119,22.5-91.17,0-164-40.24t-114.23-114.27q-41.49-74-41.45-169.89t41.45-169.32q41.43-73.39,114.23-113.67t164-40.25q62.79,0,114.84,21.32a230.74,230.74,0,0,1,88.81,63.92V417.44Zm-238,735.86q42.65-24.22,67.51-69.25t24.85-104.19q0-59.21-24.85-104.21t-67.51-69.25q-42.6-24.25-95.87-24.27t-95.91,24.27q-42.65,24.27-67.52,69.25t-24.84,104.21q0,59.21,24.84,104.19t67.52,69.25q42.58,24.3,95.91,24.27T13412.07,1153.3Z"/><path class="cls-1" d="M12435.4,1309c-87.76,0-170.42-26.48-232.67-74.56-73-56.4-113.23-139.83-113.23-234.87V583.62h134.91V999.53c0,137.77,132.67,174.52,211,174.52s211.05-36.75,211.05-174.52V584.41h134.91V999.53C12781.36,1202.67,12607.31,1309,12435.4,1309Z"/></g></g></svg>